<svg id="Layer_1" data-name="Layer 1" xmlns="http://www.w3.org/2000/svg" viewBox="0 0 268.2 81.7"><path d="M181.9,29.9V23.2c0-5.8-3.8-8-9.6-8h-9.7V53.1h6.2v-15H172l4.9,15h6.4L178,36.9C180.5,35.9,181.9,33.6,181.9,29.9Zm-6.2-.9c0,2.7-1.4,3.5-3.5,3.5h-3.4V20.6h3.4c2.1,0,3.5.8,3.5,3.5Z" fill="#003da5"/><path d="M200.6,32.4l-4.4-2.5c-1.8-1-2.5-1.8-2.5-3.8V23.5c0-2.5,1.4-3.2,3.2-3.2a2.89,2.89,0,0,1,3.2,2.54,2.43,2.43,0,0,1,0,.66v5.3h6.1V22.7c0-5.7-4.1-7.8-9.3-7.8h-.1c-5.2,0-9.3,2.1-9.3,7.8v5c0,4,2.1,5.7,5.8,7.8l4.4,2.5c1.8,1,2.5,2,2.5,4v3.1a3,3,0,0,1-2.67,3.38,3.13,3.13,0,0,1-.53,0c-1.8,0-3.2-1-3.2-3.4V39.3h-6.1v6.6c0,6,3.6,7.9,9.3,7.9h.1c5.8,0,9.3-2.1,9.3-7.9V40.3C206.4,36,204.2,34.4,200.6,32.4Z" fill="#003da5"/><rect x="212.5" y="15.2" width="6.2" height="37.9" fill="#003da5"/><path d="M235.4,15.2h-9.7V53.1h9.7c5.8,0,9.6-2.3,9.6-8v-22C244.9,17.5,241,15.2,235.4,15.2Zm3.2,28.9c0,2.7-1.4,3.5-3.5,3.5h-3.2V20.9h3.2c2.1,0,3.5.8,3.5,3.5Z" fill="#003da5"/><polygon points="257.7 47.6 257.7 36.7 266.2 36.7 266.2 31 257.7 31 257.7 20.6 267.9 20.6 267.9 15.2 251.3 15.2 251.3 53.1 268.2 53.1 268.2 47.6 257.7 47.6" fill="#003da5"/><path d="M96.7,29.9V23.2c0-5.8-3.8-8-9.6-8H77.4V53.1h6.2v-15h3.2l4.9,15h6.4L92.8,36.9C95.3,35.9,96.7,33.6,96.7,29.9ZM90.5,29c0,2.7-1.4,3.5-3.5,3.5H83.6V20.6H87c2.1,0,3.5.8,3.5,3.5Z" fill="#003da5"/><rect x="103.5" y="15.2" width="6.2" height="37.9" fill="#003da5"/><polygon points="125.2 43.2 120.8 15.2 114.5 15.2 121.6 53.1 128.6 53.1 135.7 15.2 129.6 15.2 125.2 43.2" fill="#003da5"/><polygon points="146.3 36.7 155 36.7 155 31 146.3 31 146.3 20.6 156.7 20.6 156.7 15.2 140.1 15.2 140.1 53.1 156.9 53.1 156.9 47.6 146.3 47.6 146.3 36.7" fill="#003da5"/><polygon points="17.4 81.7 66.3 58.6 66.3 56.2 17.4 67.4 17.4 81.7" fill="#ffb81c"/><polygon points="66.3 0 0 9.6 0 71.4 66.3 56.2 66.3 0" fill="#003da5"/><path d="M55.3,45.5c0,5.8-3.8,8-9.6,8h-.2c-5.8,0-9.6-2.1-9.6-8V22.7c0-5.7,3.8-8,9.6-8h.1c5.8,0,9.6,2.5,9.6,8v6.9H49v-6c0-2.6-1.4-3.5-3.4-3.5s-3.4.8-3.4,3.5V44.4c0,2.6,1.4,3.5,3.4,3.5s3.4-.8,3.4-3.5V37.5h6.2v8Z" fill="#fff"/><path d="M23.8,15.2V44.6c0,2.7-1.2,3.5-3.2,3.5s-3.2-.8-3.2-3.5V15.2H11.2V45.5c0,6,3.6,8,9.4,8h.2c5.8,0,9.4-2.1,9.4-8V15.2Z" fill="#fff"/></svg>